<svg width="2598" height="2598" xmlns="http://www.w3.org/2000/svg" xmlns:xlink="http://www.w3.org/1999/xlink" xml:space="preserve" overflow="hidden"><g><path d="M260 1299C260 725.176 725.176 260 1299 260 1872.82 260 2338 725.176 2338 1299 2338 1872.82 1872.82 2338 1299 2338 725.176 2338 260 1872.82 260 1299Z" stroke="#04B4BD" stroke-width="137.5" stroke-miterlimit="8" fill="none" fill-rule="evenodd"/><path d="M1364 494 1859 851.867 1859 1933.54 1837.75 1952.85C1712.27 2056.43 1556.46 2124.56 1385.63 2141.91L1364 2143 1364 851.867Z" fill="#04B4BD" fill-rule="evenodd"/><path d="M0 0 0 355.337 0 357.876 0 1347 21.6328 1345.91C192.455 1328.56 348.269 1260.43 473.75 1156.85L495 1137.53 495 357.876 495 355.337 491.488 355.337Z" fill="#04B4BD" fill-rule="evenodd" transform="matrix(-1 0 0 1 1234 796)"/></g></svg>